<?xml version="1.0" encoding="UTF-8" standalone="no"?>
<!-- Created with Inkscape (http://www.inkscape.org/) -->

<svg
   xmlns:dc="http://purl.org/dc/elements/1.1/"
   xmlns:cc="http://creativecommons.org/ns#"
   xmlns:rdf="http://www.w3.org/1999/02/22-rdf-syntax-ns#"
   xmlns:svg="http://www.w3.org/2000/svg"
   xmlns="http://www.w3.org/2000/svg"
   xmlns:sodipodi="http://sodipodi.sourceforge.net/DTD/sodipodi-0.dtd"
   xmlns:inkscape="http://www.inkscape.org/namespaces/inkscape"
   width="16px"
   height="16px"
   viewBox="0 0 16 16"
   version="1.1"
   id="SVGRoot"
   inkscape:version="0.92.4 (5da689c313, 2019-01-14)"
   sodipodi:docname="mail-icon.svg">
  <defs
     id="defs854" />
  <sodipodi:namedview
     id="base"
     pagecolor="#ffffff"
     bordercolor="#666666"
     borderopacity="1.0"
     inkscape:pageopacity="0.0"
     inkscape:pageshadow="2"
     inkscape:zoom="32"
     inkscape:cx="-2.9538856"
     inkscape:cy="6.0941764"
     inkscape:document-units="px"
     inkscape:current-layer="layer1"
     showgrid="false"
     inkscape:window-width="2560"
     inkscape:window-height="1377"
     inkscape:window-x="1912"
     inkscape:window-y="-8"
     inkscape:window-maximized="1"
     inkscape:grid-bbox="true"
     inkscape:snap-nodes="false" />
  <metadata
     id="metadata857">
    <rdf:RDF>
      <cc:Work
         rdf:about="">
        <dc:format>image/svg+xml</dc:format>
        <dc:type
           rdf:resource="http://purl.org/dc/dcmitype/StillImage" />
        <dc:title></dc:title>
      </cc:Work>
    </rdf:RDF>
  </metadata>
  <g
     inkscape:label="Layer 1"
     inkscape:groupmode="layer"
     id="layer1">
    <path
       style="fill:#000000;fill-opacity:0.95454544;fill-rule:nonzero;stroke:none;stroke-width:0;stroke-linecap:round;stroke-linejoin:miter;stroke-miterlimit:4;stroke-dasharray:none;stroke-dashoffset:0;stroke-opacity:1;paint-order:markers fill stroke"
       d="m 1.3456,3.0917969 c -0.537526,0 -0.965245,0.4179897 -1.003906,0.9453125 L 6.60146,8.1972656 c 0.444933,0.2460146 0.879114,0.5212804 1.382812,0.53125 0.504542,-0.00929 0.93925,-0.2849131 1.384766,-0.53125 L 15.704976,3.9863281 C 15.641947,3.4845695 15.234136,3.0917969 14.714741,3.0917969 Z M 15.730366,5.0841766 9.529194,9.1974579 C 9.03715,9.4672704 8.569718,9.7483353 7.990132,9.761911 v 0.00195 c -0.002,-3.59e-5 -0.0039,4.23e-5 -0.0059,0 -0.0013,2.68e-5 -0.0026,-2.39e-5 -0.0039,0 V 9.761911 C 7.400775,9.748335 6.933342,9.4672704 6.4413,9.1974579 L 0.328018,5.1427703 v 7.1855467 c 0,0.563122 0.454456,1.017578 1.017578,1.017578 h 13.369141 c 0.563122,0 1.015625,-0.454456 1.015625,-1.017578 z"
       id="rect2598"
       inkscape:connector-curvature="0"
       sodipodi:nodetypes="scccccsscccccccccssssc" />
    <rect
       style="fill:#000000;fill-opacity:0.95454544;fill-rule:nonzero;stroke:none;stroke-width:0;stroke-linecap:round;stroke-linejoin:miter;stroke-miterlimit:4;stroke-dasharray:none;stroke-dashoffset:0;stroke-opacity:1;paint-order:markers fill stroke"
       id="rect2606"
       width="15.40167"
       height="10.739184"
       x="-34.394901"
       y="2.4986796"
       ry="1.016466" />
    <path
       style="fill:#0000ff;stroke:#000000;stroke-width:0;stroke-linecap:butt;stroke-linejoin:miter;stroke-miterlimit:4;stroke-dasharray:none;stroke-opacity:1"
       d="m -34.649342,3.2648631 v 1.602369 l 6.367528,4.2227137 c 0.494947,0.2714047 0.963637,0.5550817 1.547996,0.565542 V 8.1348306 c -0.50623,-0.00791 -0.941727,-0.2844846 -1.388409,-0.531466 z"
       id="path2608"
       inkscape:connector-curvature="0"
       sodipodi:nodetypes="ccccccc" />
    <path
       sodipodi:nodetypes="ccccccc"
       inkscape:connector-curvature="0"
       id="path2610"
       d="m -18.827487,3.2648631 v 1.602369 l -6.367528,4.2227137 c -0.494947,0.2714047 -0.963638,0.5550817 -1.547996,0.565542 V 8.1348306 c 0.50623,-0.00791 0.941727,-0.2844846 1.388408,-0.531466 z"
       style="fill:#0000ff;stroke:#000000;stroke-width:0;stroke-linecap:butt;stroke-linejoin:miter;stroke-miterlimit:4;stroke-dasharray:none;stroke-opacity:1" />
    <path
       style="fill:#000000;fill-opacity:0.95454544;fill-rule:nonzero;stroke:none;stroke-width:0;stroke-linecap:round;stroke-linejoin:miter;stroke-miterlimit:4;stroke-dasharray:none;stroke-dashoffset:0;stroke-opacity:1;paint-order:markers fill stroke"
       d="m -15.675781,3.1855469 c -0.293685,0 -0.55305,0.1263421 -0.738281,0.3242187 l 5.99414,3.9863282 c 0.445518,0.2463377 0.880222,0.5219659 1.384766,0.53125 0.504543,-0.00928 0.9372953,-0.2849122 1.382812,-0.53125 L -1.601562,3.4726562 C -1.784275,3.2958998 -2.031167,3.1855469 -2.306641,3.1855469 Z m 14.384765,1.3398437 -6.201171,4.1132813 c -0.4925992,0.270117 -0.9585669,0.5495154 -1.539063,0.5625 v 0.00195 c -0.0028,-4.96e-5 -0.005,-0.00189 -0.0078,-0.00195 -0.580499,-0.012985 -1.046464,-0.292383 -1.539063,-0.5625 l -6.113281,-4.0546875 v 7.9804686 c 0,0.563122 0.452503,1.017578 1.015625,1.017578 h 13.36914 c 0.563123,0 1.015625,-0.454456 1.015625,-1.017578 z"
       id="rect2614"
       inkscape:connector-curvature="0"
       sodipodi:nodetypes="scccccsscccccccssssc" />
  </g>
</svg>
